# xmcd
#
# Track frame offsets:
#	182
#	17185
#	38372
#	63382
#	99625
#	114750
#	131555
#	149187
#	171150
#
# Disc length: 2498 seconds
#
# Revision: 3298455484
# Processed by: cddbd v1.5.2PL0 Copyright (c) Steve Scherf et al.
# Submitted via: EZCDAudioConverter 3.1.4.1
#
DISCID=7809c009
DTITLE=Jennifer Warnes - Famous Blue Raincoat (Canadian Version)
DYEAR=1987
DGENRE=Pop
TTITLE0=First We Take Manhattan
TTITLE1=Bird On A Wire
TTITLE2=Famous Blue Raincoat
TTITLE3=Joan Of Arc
TTITLE4=Ain't No Cure For Love
TTITLE5=Coming Back To You
TTITLE6=Song Of Bernadette
TTITLE7=A Singer Must Die
TTITLE8=Came So Far For Beauty
EXTD=
EXTT0=
EXTT1=
EXTT2=
EXTT3=
EXTT4=
EXTT5=
EXTT6=
EXTT7=
EXTT8=
PLAYORDER=
